<svg xmlns="http://www.w3.org/2000/svg" fill="none" viewBox="0 0 289 51" height="51" width="289">
<g clip-path="url(#clip0_380_15247)">
<path fill="white" d="M212.639 29.083C211.261 29.0314 210.031 29.6744 209.269 30.6945C209.269 30.6945 209.261 30.6945 209.257 30.6945C208.495 29.6784 207.264 29.0314 205.887 29.083C203.716 29.1663 202.025 31.016 202.025 33.1912V38.6093C202.025 39.0261 202.331 39.4031 202.747 39.4389C203.22 39.4825 203.613 39.1094 203.613 38.649V33.1714C203.613 31.7265 204.795 30.5596 206.236 30.6747C207.483 30.7739 208.467 31.8218 208.467 33.0959V38.6093C208.467 39.0261 208.773 39.4031 209.189 39.4389C209.662 39.4825 210.055 39.1094 210.055 38.649V33.1714C210.055 31.7265 211.238 30.5596 212.678 30.6747C213.925 30.7739 214.909 31.8218 214.909 33.0959V38.6093C214.909 39.0261 215.215 39.4031 215.632 39.4389C216.104 39.4825 216.497 39.1094 216.497 38.649V33.1912C216.497 31.016 214.81 29.1663 212.635 29.083"></path>
<path fill="white" d="M176.395 39.5341C175.435 39.5341 174.573 39.3079 173.811 38.8593C173.049 38.4108 172.442 37.8035 171.993 37.0335C171.545 36.2674 171.315 35.4021 171.303 34.4415V25.8282C171.303 25.5821 171.374 25.3876 171.513 25.2486C171.656 25.1058 171.846 25.0383 172.092 25.0383C172.327 25.0383 172.513 25.1097 172.656 25.2486C172.799 25.3915 172.87 25.5821 172.87 25.8282V31.1034C173.275 30.5516 173.803 30.1031 174.458 29.7657C175.109 29.4283 175.836 29.2576 176.633 29.2576C177.566 29.2576 178.404 29.4839 179.142 29.9324C179.88 30.3809 180.46 30.9922 180.884 31.7662C181.309 32.5402 181.52 33.4135 181.52 34.386C181.52 35.3584 181.293 36.2475 180.845 37.0216C180.396 37.7956 179.785 38.4068 179.019 38.8554C178.249 39.3039 177.376 39.5302 176.391 39.5302M176.395 38.133C177.082 38.133 177.701 37.9663 178.249 37.6368C178.797 37.3034 179.225 36.8588 179.539 36.2991C179.852 35.7395 180.007 35.1044 180.007 34.3899C180.007 33.6754 179.848 33.0562 179.539 32.4886C179.225 31.925 178.793 31.4765 178.249 31.151C177.701 30.8255 177.086 30.6628 176.395 30.6628C175.705 30.6628 175.125 30.8255 174.577 31.151C174.03 31.4765 173.601 31.921 173.295 32.4886C172.99 33.0523 172.835 33.6874 172.835 34.3899C172.835 35.0925 172.99 35.7395 173.295 36.2991C173.601 36.8588 174.03 37.3034 174.577 37.6368C175.125 37.9702 175.728 38.133 176.395 38.133Z"></path>
<path fill="white" d="M188.589 39.4786C188.39 39.5778 188.208 39.5976 188.037 39.5341C187.866 39.4746 187.724 39.3357 187.612 39.1293L183.48 30.7739C183.381 30.5635 183.365 30.373 183.433 30.2023C183.5 30.0316 183.631 29.8967 183.83 29.7975C184.04 29.7101 184.231 29.6982 184.401 29.7617C184.572 29.8213 184.707 29.9523 184.806 30.1507L188.847 38.5259C188.946 38.7244 188.978 38.9109 188.95 39.0896C188.918 39.2682 188.799 39.3992 188.589 39.4865M186.501 44.2377C186.402 44.2377 186.279 44.206 186.132 44.1464C185.675 43.9361 185.552 43.6106 185.763 43.17L191.61 30.1666C191.82 29.7379 192.145 29.6188 192.586 29.8173C193.042 29.9999 193.169 30.3214 192.975 30.7779L187.092 43.7614C186.969 44.079 186.771 44.2417 186.501 44.2417"></path>
<path fill="white" d="M225.182 39.5341C224.174 39.5341 223.28 39.3158 222.506 38.8792C221.732 38.4426 221.125 37.8353 220.681 37.0613C220.236 36.2872 220.018 35.4021 220.018 34.4058C220.018 33.4095 220.228 32.5085 220.645 31.7424C221.062 30.9724 221.637 30.369 222.371 29.9245C223.102 29.4799 223.947 29.2616 224.908 29.2616C225.868 29.2616 226.658 29.472 227.353 29.8967C228.048 30.3214 228.583 30.9089 228.957 31.659C229.33 32.4092 229.52 33.2626 229.52 34.2232C229.52 34.4336 229.453 34.6003 229.318 34.7313C229.183 34.8623 229.008 34.9258 228.802 34.9258H221.093V33.6516H228.897L228.103 34.2034C228.115 33.5286 227.992 32.9173 227.734 32.3775C227.476 31.8377 227.107 31.413 226.627 31.1033C226.146 30.7977 225.575 30.6429 224.912 30.6429C224.209 30.6429 223.598 30.8017 223.078 31.1232C222.554 31.4447 222.157 31.8893 221.879 32.4608C221.601 33.0324 221.463 33.6794 221.463 34.4058C221.463 35.1322 221.621 35.7752 221.943 36.3428C222.264 36.9104 222.701 37.351 223.261 37.6725C223.82 37.994 224.463 38.1528 225.19 38.1528C225.606 38.1528 226.035 38.0774 226.472 37.9305C226.908 37.7837 227.254 37.5971 227.512 37.3788C227.659 37.2677 227.829 37.2121 228.02 37.2041C228.21 37.2002 228.369 37.2518 228.488 37.3629C228.671 37.5217 228.766 37.6963 228.774 37.8789C228.782 38.0615 228.699 38.2243 228.524 38.3592C228.119 38.7045 227.603 38.9864 226.976 39.2086C226.349 39.4309 225.753 39.5421 225.186 39.5421"></path>
<path fill="white" d="M237.113 39.5341C236.141 39.5341 235.268 39.3079 234.494 38.8593C233.72 38.4108 233.108 37.7995 232.66 37.0255C232.211 36.2515 231.985 35.3703 231.985 34.3899C231.985 33.4095 232.199 32.5442 232.632 31.7702C233.065 30.9962 233.648 30.3849 234.387 29.9364C235.125 29.4879 235.958 29.2616 236.895 29.2616C237.693 29.2616 238.415 29.4323 239.062 29.7697C239.709 30.1071 240.233 30.5556 240.638 31.1073V25.8321C240.638 25.586 240.714 25.3915 240.868 25.2526C241.023 25.1097 241.21 25.0423 241.432 25.0423C241.666 25.0423 241.857 25.1137 242.004 25.2526C242.15 25.3955 242.226 25.586 242.226 25.8321V34.4455C242.202 35.4061 241.964 36.2674 241.515 37.0374C241.067 37.8075 240.46 38.4148 239.697 38.8633C238.935 39.3118 238.074 39.5381 237.113 39.5381M237.113 38.133C237.8 38.133 238.415 37.9663 238.947 37.6368C239.483 37.3034 239.908 36.8588 240.221 36.2992C240.535 35.7395 240.69 35.1044 240.69 34.3899C240.69 33.6755 240.531 33.0562 240.221 32.4886C239.908 31.925 239.483 31.4765 238.947 31.151C238.411 30.8255 237.8 30.6628 237.113 30.6628C236.427 30.6628 235.827 30.8255 235.28 31.151C234.732 31.4765 234.299 31.921 233.978 32.4886C233.656 33.0523 233.497 33.6874 233.497 34.3899C233.497 35.0925 233.656 35.7395 233.978 36.2992C234.295 36.8588 234.732 37.3034 235.28 37.6368C235.827 37.9702 236.439 38.133 237.113 38.133Z"></path>
<path fill="white" d="M247.557 27.527C247.263 27.527 247.009 27.4199 246.802 27.2055C246.592 26.9912 246.489 26.7371 246.489 26.4394C246.489 26.1417 246.596 25.8798 246.81 25.6853C247.025 25.4908 247.275 25.3915 247.557 25.3915C247.838 25.3915 248.089 25.4908 248.303 25.6853C248.517 25.8798 248.624 26.1338 248.624 26.4394C248.624 26.7451 248.521 26.9912 248.311 27.2055C248.1 27.4199 247.85 27.527 247.553 27.527M247.572 39.4428C247.338 39.4428 247.148 39.3714 247.001 39.2325C246.854 39.0896 246.779 38.899 246.779 38.6529V30.1507C246.779 29.9046 246.85 29.7101 247.001 29.5712C247.148 29.4283 247.338 29.3569 247.572 29.3569C247.807 29.3569 247.993 29.4283 248.136 29.5712C248.279 29.7141 248.347 29.9046 248.347 30.1507V38.6529C248.347 38.899 248.275 39.0935 248.136 39.2325C247.993 39.3754 247.807 39.4428 247.572 39.4428Z"></path>
<path fill="white" d="M253.697 43.7574C253.451 43.7574 253.257 43.686 253.118 43.5471C252.975 43.4042 252.907 43.2097 252.907 42.9676V34.3542C252.919 33.3936 253.149 32.5323 253.598 31.7622C254.046 30.9962 254.654 30.3849 255.416 29.9364C256.178 29.4878 257.039 29.2616 258 29.2616C258.96 29.2616 259.861 29.4878 260.627 29.9364C261.398 30.3849 262.005 30.9962 262.453 31.7702C262.902 32.5442 263.128 33.4254 263.128 34.4058C263.128 35.3862 262.918 36.2515 262.493 37.0255C262.068 37.7995 261.489 38.4108 260.751 38.8593C260.012 39.3079 259.179 39.5341 258.242 39.5341C257.44 39.5341 256.718 39.3634 256.067 39.026C255.416 38.6887 254.888 38.2441 254.479 37.6884V42.9636C254.479 43.2097 254.404 43.4042 254.257 43.5431C254.11 43.686 253.923 43.7535 253.705 43.7535M257.996 38.133C258.683 38.133 259.302 37.9702 259.85 37.6447C260.397 37.3193 260.826 36.8747 261.14 36.3071C261.453 35.7434 261.612 35.1084 261.612 34.4058C261.612 33.7032 261.453 33.0562 261.14 32.4966C260.826 31.9369 260.393 31.4923 259.85 31.1589C259.302 30.8255 258.683 30.6588 257.996 30.6588C257.309 30.6588 256.726 30.8255 256.178 31.1589C255.63 31.4923 255.201 31.9369 254.896 32.4966C254.586 33.0562 254.435 33.6913 254.435 34.4058C254.435 35.1203 254.59 35.7395 254.896 36.3071C255.201 36.8747 255.626 37.3193 256.17 37.6447C256.71 37.9702 257.321 38.133 257.996 38.133Z"></path>
<path fill="white" d="M267.935 27.527C267.641 27.527 267.387 27.4199 267.177 27.2055C266.966 26.9912 266.863 26.7371 266.863 26.4394C266.863 26.1417 266.97 25.8798 267.185 25.6853C267.399 25.4908 267.649 25.3915 267.931 25.3915C268.213 25.3915 268.463 25.4908 268.677 25.6853C268.892 25.8798 268.999 26.1338 268.999 26.4394C268.999 26.7451 268.896 26.9912 268.685 27.2055C268.475 27.4199 268.225 27.527 267.927 27.527M267.955 39.4428C267.721 39.4428 267.53 39.3714 267.383 39.2325C267.236 39.0896 267.161 38.899 267.161 38.6529V30.1507C267.161 29.9046 267.236 29.7101 267.383 29.5712C267.53 29.4283 267.721 29.3569 267.955 29.3569C268.189 29.3569 268.376 29.4283 268.518 29.5712C268.661 29.7141 268.729 29.9046 268.729 30.1507V38.6529C268.729 38.899 268.657 39.0935 268.518 39.2325C268.376 39.3754 268.189 39.4428 267.955 39.4428Z"></path>
<path fill="white" d="M277.914 39.5341C276.906 39.5341 276.012 39.3158 275.238 38.8792C274.464 38.4426 273.857 37.8353 273.413 37.0613C272.968 36.2872 272.75 35.4021 272.75 34.4058C272.75 33.4095 272.96 32.5085 273.377 31.7424C273.794 30.9724 274.369 30.369 275.1 29.9245C275.83 29.4799 276.675 29.2616 277.636 29.2616C278.596 29.2616 279.386 29.472 280.081 29.8967C280.776 30.3214 281.311 30.9089 281.685 31.659C282.062 32.4092 282.248 33.2626 282.248 34.2232C282.248 34.4336 282.181 34.6003 282.046 34.7313C281.911 34.8623 281.736 34.9258 281.53 34.9258H273.821V33.6516H281.625L280.831 34.2034C280.843 33.5286 280.72 32.9173 280.462 32.3775C280.204 31.8377 279.835 31.413 279.355 31.1033C278.874 30.7977 278.303 30.6429 277.64 30.6429C276.937 30.6429 276.326 30.8017 275.806 31.1232C275.282 31.4447 274.885 31.8893 274.607 32.4608C274.329 33.0324 274.191 33.6794 274.191 34.4058C274.191 35.1322 274.349 35.7752 274.671 36.3428C274.992 36.9104 275.429 37.351 275.989 37.6725C276.548 37.994 277.191 38.1528 277.918 38.1528C278.334 38.1528 278.763 38.0774 279.2 37.9305C279.636 37.7837 279.982 37.5971 280.24 37.3788C280.387 37.2677 280.557 37.2121 280.748 37.2041C280.938 37.2002 281.097 37.2518 281.22 37.3629C281.403 37.5217 281.498 37.6963 281.506 37.8789C281.514 38.0615 281.431 38.2243 281.256 38.3592C280.851 38.7045 280.335 38.9864 279.708 39.2086C279.081 39.4309 278.485 39.5421 277.918 39.5421"></path>
<path fill="white" d="M287.877 39.4428C287.361 39.4428 286.904 39.3039 286.511 39.0261C286.118 38.7482 285.813 38.3671 285.59 37.875C285.368 37.3828 285.257 36.8191 285.257 36.1801V25.8163C285.257 25.5821 285.328 25.3955 285.467 25.2526C285.61 25.1097 285.797 25.0383 286.031 25.0383C286.253 25.0383 286.432 25.1097 286.575 25.2526C286.714 25.3955 286.785 25.5821 286.785 25.8163V36.1801C286.785 36.6842 286.888 37.1009 287.091 37.4264C287.293 37.7519 287.555 37.9146 287.877 37.9146H288.337C288.536 37.9146 288.694 37.9861 288.817 38.125C288.94 38.2679 289 38.4465 289 38.6688C289 38.903 288.909 39.0896 288.734 39.2325C288.555 39.3753 288.325 39.4428 288.043 39.4428H287.877Z"></path>
<path fill="white" d="M18.4929 0C13.1304 9.16509 0 21.4699 0 31.6114C0 41.753 8.29978 50.8506 18.5366 50.8506C28.7734 50.8506 37.0692 42.2372 37.0692 31.6114C37.0692 20.9856 23.8832 9.1889 18.4929 0ZM18.5366 47.56C10.1336 47.56 3.31436 40.4868 3.31436 31.7583C3.31436 23.0298 14.0949 13.3249 18.5009 5.79516C22.9266 13.3408 33.7548 23.399 33.7548 31.7543C33.7548 40.1097 26.9356 47.5561 18.5326 47.5561" clip-rule="evenodd" fill-rule="evenodd"></path>
<path fill="white" d="M77.3297 13.2773C73.8367 13.1463 70.7089 14.7816 68.7759 17.3656C68.7679 17.3736 68.756 17.3736 68.7481 17.3656C66.815 14.7856 63.6912 13.1463 60.1982 13.2773C54.6849 13.4837 50.402 18.1833 50.402 23.6967V37.4423C50.402 38.5021 51.1761 39.4587 52.2359 39.55C53.4306 39.6532 54.4348 38.7164 54.4348 37.5415V23.6451C54.4348 19.9814 57.4356 17.0203 61.0913 17.314C64.2549 17.5681 66.7515 20.2235 66.7515 23.4545V37.4423C66.7515 38.5021 67.5255 39.4587 68.5854 39.55C69.7801 39.6532 70.7843 38.7164 70.7843 37.5415V23.6451C70.7843 19.9814 73.7851 17.0203 77.4408 17.314C80.6044 17.5681 83.105 20.2235 83.105 23.4545V37.4423C83.105 38.5021 83.879 39.4587 84.9388 39.55C86.1336 39.6532 87.1378 38.7164 87.1378 37.5415V23.6927C87.1378 18.1754 82.8549 13.4797 77.3416 13.2733"></path>
<path fill="white" d="M109.842 39.5341C107.361 39.5341 105.131 38.9625 103.154 37.8154C101.177 36.6683 99.6133 35.1084 98.4662 33.1277C97.319 31.151 96.7475 28.9044 96.7475 26.3918C96.7475 23.8792 97.2952 21.6803 98.3947 19.7036C99.4942 17.7268 100.987 16.1629 102.868 15.0158C104.754 13.8687 106.889 13.2971 109.275 13.2971C111.315 13.2971 113.16 13.7298 114.808 14.5911C116.439 15.4445 117.773 16.5678 118.805 17.961C118.817 17.9769 118.837 17.969 118.837 17.9491V4.53293C118.837 3.90578 119.031 3.40962 119.424 3.04841C119.817 2.68721 120.297 2.50859 120.861 2.50859C121.456 2.50859 121.945 2.69118 122.322 3.04841C122.699 3.40962 122.889 3.90578 122.889 4.53293V26.5307C122.826 28.9798 122.222 31.1867 121.075 33.1515C119.928 35.1163 118.38 36.6683 116.435 37.8154C114.486 38.9625 112.291 39.5341 109.842 39.5341ZM109.842 35.9538C111.601 35.9538 113.164 35.5291 114.53 34.6837C115.895 33.8342 116.979 32.699 117.781 31.2701C118.583 29.8411 118.983 28.2137 118.983 26.3958C118.983 24.5778 118.583 22.9901 117.781 21.5453C116.979 20.1005 115.895 18.9613 114.53 18.1317C113.164 17.2982 111.601 16.8854 109.842 16.8854C108.084 16.8854 106.552 17.3021 105.154 18.1317C103.757 18.9653 102.65 20.1005 101.832 21.5453C101.014 22.9901 100.606 24.6056 100.606 26.3958C100.606 28.1859 101.014 29.8411 101.832 31.2701C102.65 32.699 103.753 33.8382 105.154 34.6837C106.552 35.5331 108.116 35.9538 109.842 35.9538Z"></path>
<path fill="white" d="M135.46 50.3187C134.833 50.3187 134.337 50.1361 133.975 49.7789C133.614 49.4177 133.436 48.9215 133.436 48.2943V26.2965C133.467 23.8475 134.055 21.6406 135.202 19.6797C136.349 17.7189 137.893 16.1629 139.842 15.0158C141.787 13.8687 143.986 13.2971 146.435 13.2971C148.884 13.2971 151.186 13.8727 153.147 15.0158C155.108 16.1629 156.664 17.7229 157.811 19.7036C158.958 21.6803 159.53 23.9269 159.53 26.4394C159.53 28.952 158.99 31.151 157.906 33.1277C156.823 35.1044 155.338 36.6683 153.453 37.8154C151.567 38.9625 149.432 39.5341 147.046 39.5341C145.002 39.5341 143.152 39.1015 141.489 38.2401C139.842 37.3867 138.5 36.2634 137.468 34.8702C137.456 34.8543 137.437 34.8623 137.437 34.8821V48.3023C137.437 48.9294 137.246 49.4256 136.869 49.7868C136.492 50.148 136.02 50.3266 135.456 50.3266M146.435 35.9538C148.193 35.9538 149.773 35.537 151.17 34.7035C152.568 33.8699 153.667 32.7347 154.469 31.2899C155.271 29.8451 155.672 28.2296 155.672 26.4394C155.672 24.6493 155.271 22.9941 154.469 21.5652C153.667 20.1362 152.568 18.997 151.17 18.1516C149.773 17.3021 148.193 16.8814 146.435 16.8814C144.677 16.8814 143.192 17.3061 141.795 18.1516C140.398 19.001 139.306 20.1402 138.52 21.5652C137.734 22.9941 137.341 24.6215 137.341 26.4394C137.341 28.2574 137.734 29.8491 138.52 31.2899C139.306 32.7347 140.39 33.8739 141.771 34.7035C143.152 35.537 144.708 35.9538 146.435 35.9538Z"></path>
</g>
<defs>
<clipPath id="clip0_380_15247">
<rect fill="white" height="50.8506" width="289"></rect>
</clipPath>
</defs>
</svg>
